<svg xmlns="http://www.w3.org/2000/svg" version="1.2" baseProfile="tiny-ps" xmlns:xlink="http://www.w3.org/1999/xlink" viewBox="0 0 1000 1000" width="1000" height="1000">
  <title>SubTrack</title>
  <defs>
    <clipPath id="roundedClip">
      <rect width="1000" height="1000" x="0" y="0" rx="350" ry="350"/>
    </clipPath>
  </defs>
  <g clip-path="url(#roundedClip)">
    <rect width="1000" height="1000" fill="#000000"/>
    <g transform="matrix(0.7,0,0,0.7,150,150)">
      <path fill="#ed2024" stroke="#000" stroke-miterlimit="10" d="M837.16,171.88h-63.31v59.91c0,40.09-32.5,72.59-72.59,72.59h0c-40.09,0-72.59-32.5-72.59-72.59v-59.91h-257.35v59.91c0,40.09-32.5,72.59-72.59,72.59h0c-40.09,0-72.59-32.5-72.59-72.59v-59.91h-63.31c-31.03,0-56.19,25.16-56.19,56.19v674.33c0,31.03,25.16,56.19,56.19,56.19h674.33c31.03,0,56.19-25.16,56.19-56.19V228.07c0-31.03-25.16-56.19-56.19-56.19ZM871.57,905.08c0,18.14-14.71,32.85-32.85,32.85H161.28c-18.14,0-32.85-14.71-32.85-32.85V343.4h743.14v561.68Z"/>
      <path fill="#e2e419" stroke="#000" stroke-miterlimit="10" d="M298.02,283.59c30,0,54.33-24.32,54.33-54.33v-112.36c0-30-24.32-54.33-54.33-54.33s-54.33,24.32-54.33,54.33v112.36c0,30,24.32,54.33,54.33,54.33Z"/>
      <rect fill="#e2e419" stroke="#000" stroke-miterlimit="10" x="646.55" y="62.57" width="108.66" height="221.02" rx="54.33" ry="54.33"/>
      <text fill="#fff" stroke="#fff" stroke-miterlimit="10" stroke-width="8" font-family="TrebuchetMS, 'Trebuchet MS'" font-size="281.46" transform="translate(404.03 640.7) scale(1.3 1)"><tspan x="0" y="0">$</tspan></text>
      <polygon fill="#fff" stroke="#fff" stroke-miterlimit="10" points="663.1 694.68 624.71 656.3 624.05 656.96 623.97 656.88 475.91 804.93 375.29 704.31 336.9 742.69 437.53 843.32 437.53 843.32 475.91 881.7 476.57 881.04 476.65 881.12 663.1 694.68"/>
    </g>
  </g>
</svg>